<svg version="1.1" id="&#x421;&#x43B;&#x43E;&#x439;_1" xmlns="http://www.w3.org/2000/svg" x="0" y="0" viewBox="0 0 22 22" xml:space="preserve" enable-background="new 0 0 22 22"><g class="nc-icon-wrapper"><path d="M18.5 5.8c-1.6-2.5-4.4-4.2-7.5-4.2-4.5 0-8.3 3.5-8.9 8 .2 0 .4-.1.6-.1H3c.6-4 4-7.1 8.1-7.1 2.9 0 5.4 1.6 6.8 3.9.2-.2.4-.4.6-.5z"/><path d="M19.5 12.2h-.4c-.6 4.1-4 7.2-8.1 7.2-2.7 0-5.1-1.4-6.6-3.5 0 .1-.1.1-.2.2l-.3.3c1.6 2.3 4.3 3.8 7.2 3.8 4.5 0 8.3-3.5 8.9-8h-.5z"/><path d="M6.8 13.6v-.8c.4.3.8.5 1.3.5.4 0 .7-.1.9-.3.2-.2.3-.5.3-.9 0-.8-.5-1.2-1.5-1.2h-.5v-.6h.4c.9 0 1.3-.4 1.3-1.1 0-.7-.3-1-1-1-.3-.1-.7.1-1 .4v-.7c.3-.2.8-.4 1.2-.4.5 0 .8.1 1.1.4s.4.7.4 1.1c0 .8-.4 1.3-1.1 1.6.4 0 .7.2.9.5.2.3.3.6.3 1 0 .6-.2 1-.5 1.3s-.8.5-1.3.5-.9-.1-1.2-.3z"/><path d="M11.1 13.8V7.6h1.5c1.9 0 2.9 1 2.9 3 0 .9-.3 1.7-.8 2.3-.5.6-1.2.9-2.1.9h-1.5zm.7-5.5v4.8h.8c.7 0 1.3-.2 1.7-.6.4-.4.6-1 .6-1.8 0-1.6-.7-2.4-2.2-2.4h-.9z"/><path d="M22 12.4h-5.1L19.4 8l2.6 4.4zm-4.2-.5H21l-1.6-2.8-1.6 2.8z"/><path d="M2.6 13.8L0 9.4h5.1l-2.5 4.4zM.9 9.9l1.6 2.8 1.6-2.8H.9z"/></g></svg>