<svg xmlns="http://www.w3.org/2000/svg" viewBox="0 0 25 25"><g class="nc-icon-wrapper"><path d="M5.2 19.7C4 19.4 3.1 18.2 3.3 17V8.6c.3-.8 1-1.4 1.8-1.4-.3-1.1 1-1 1.6-1 .7 0 .7.7 1 .8h1.9c.8-.8 1.4-1.9 2.5-2.5 1.8 0 3.6 0 5.3.1 1 .4 1.4 1.4 2.1 2.2.5.5 1.6.1 2.1 1.1.4.7.1 1.5.3 2.2v7.7c-.3 1.2-1.5 2.1-2.6 1.9H5.2zm9.8-1.5c2.7-.3 4.8-3.3 4.1-5.9-.5-2.6-3.8-4.2-6.3-3.3-2.6 1-3.8 4.2-2.5 6.7.9 1.7 3 2.8 4.7 2.5zm-.9-1.2c-2.2-.1-3.8-2.7-3-4.8.8-2.1 3.6-3 5.3-1.8 2.1 1.1 2.3 4.4.4 5.8-.7.7-1.6.9-2.7.8zm2.2-4c1.4-.7-.4-2.7-1.2-1.4-.6.9.4 2 1.2 1.4zM7 10.6c1.5-.7-.3-2.9-1.2-1.5-.6.9.3 2 1.2 1.5z"/></g></svg>