<svg xmlns="http://www.w3.org/2000/svg" viewBox="0 0 25 25"><g class="nc-icon-wrapper"><path d="M10.3 10.4c-.1-.8-.7-1.5-1.5-1.5-.1 0-.3 0-.4.1-.3-.8-1-1.3-1.8-1.3-1 0-1.8.8-1.9 1.9-.1-.1-.3-.2-.5-.2-.6 0-1.1.6-1.1 1.3 0 .7.5 1.3 1.1 1.3h6.1c.4 0 .7-.3.7-.8s-.3-.8-.7-.8z" fill="#c9c8c8"/><ellipse cx="16.9" cy="7.2" rx="2.9" ry="2.8" fill="#fff"/><path d="M25 25v-6.9c-.6-.4-1.6-1.2-2.7-1.1-2 .2-3 2.3-5.8 1.5-1.3-.4-2.4-1.2-3.8-1.3-.7 0-1.7.3-2.4.5-1.9.6-3.2 1.4-5.3 1-2.1-.3-3-.9-5.1 0V25H25z" fill="#000"/></g></svg>