<?xml version="1.0" encoding="utf-8"?>
<!-- Generator: Adobe Illustrator 23.0.1, SVG Export Plug-In . SVG Version: 6.00 Build 0)  -->
<svg version="1.1" id="Слой_1" xmlns="http://www.w3.org/2000/svg" xmlns:xlink="http://www.w3.org/1999/xlink" x="0px" y="0px"
	 viewBox="0 0 22 22" style="enable-background:new 0 0 22 22;" xml:space="preserve">
<path d="M18.5,5.8c-1.6-2.5-4.4-4.2-7.5-4.2c-4.5,0-8.3,3.5-8.9,8c0.2,0,0.4-0.1,0.6-0.1c0.1,0,0.2,0,0.3,0c0.6-4,4-7.1,8.1-7.1
	c2.9,0,5.4,1.6,6.8,3.9C18.1,6.1,18.3,5.9,18.5,5.8z"/>
<path d="M19.5,12.2c-0.2,0-0.3,0-0.4,0c-0.6,4.1-4,7.2-8.1,7.2c-2.7,0-5.1-1.4-6.6-3.5C4.4,16,4.3,16,4.2,16.1
	c-0.1,0.1-0.2,0.2-0.3,0.3c1.6,2.3,4.3,3.8,7.2,3.8c4.5,0,8.3-3.5,8.9-8C19.8,12.2,19.7,12.2,19.5,12.2z"/>
<g>
	<path d="M6.8,13.6v-0.8c0.4,0.3,0.8,0.5,1.3,0.5c0.4,0,0.7-0.1,0.9-0.3c0.2-0.2,0.3-0.5,0.3-0.9c0-0.8-0.5-1.2-1.5-1.2H7.3v-0.6
		h0.4c0.9,0,1.3-0.4,1.3-1.1c0-0.7-0.3-1-1-1C7.7,8.1,7.3,8.3,7,8.6V7.9c0.3-0.2,0.8-0.4,1.2-0.4c0.5,0,0.8,0.1,1.1,0.4
		S9.7,8.6,9.7,9c0,0.8-0.4,1.3-1.1,1.6v0c0.4,0,0.7,0.2,0.9,0.5c0.2,0.3,0.3,0.6,0.3,1c0,0.6-0.2,1-0.5,1.3S8.5,13.9,8,13.9
		C7.5,13.9,7.1,13.8,6.8,13.6z"/>
	<path d="M11.1,13.8V7.6h1.5c1.9,0,2.9,1,2.9,3c0,0.9-0.3,1.7-0.8,2.3c-0.5,0.6-1.2,0.9-2.1,0.9H11.1z M11.8,8.3v4.8h0.8
		c0.7,0,1.3-0.2,1.7-0.6c0.4-0.4,0.6-1,0.6-1.8c0-1.6-0.7-2.4-2.2-2.4H11.8z"/>
</g>
<path d="M22,12.4h-5.1L19.4,8L22,12.4z M17.8,11.9h3.2l-1.6-2.8L17.8,11.9z"/>
<path d="M2.6,13.8L0,9.4h5.1L2.6,13.8z M0.9,9.9l1.6,2.8l1.6-2.8H0.9z"/>
</svg>
