<svg xmlns="http://www.w3.org/2000/svg" viewBox="0 0 25 25"><path fill="#000" d="M21.6 8.1L18.1 10V8.4c0-.6-.5-1.1-1-1.1h-4.8v-.6c0-.3-.2-.6-.6-.6H9.8c-.3 0-.6.3-.6.6v.7h-.9v-.7c0-.3-.3-.6-.6-.6H5.8c-.3 0-.7.3-.7.6v.7H5c-.6 0-1.1.5-1.1 1.1v8.9c0 .6.5 1.1 1.1 1.1h12.2c.6 0 1-.5 1-1.1v-1.7l3.5 2c.3.2.6 0 .6-.3v-9c-.1-.3-.4-.5-.7-.3zM11 16.3c-1.9 0-3.5-1.6-3.5-3.5S9.1 9.3 11 9.3s3.5 1.6 3.5 3.5-1.6 3.5-3.5 3.5z"/><path fill="#000" d="M13 12.5l-2.7-1.9c-.3-.2-.5-.1-.5.3v3.9c0 .3.2.5.5.3l2.7-1.9c.3-.2.3-.5 0-.7z"/></svg>