<svg xmlns="http://www.w3.org/2000/svg" style="display: none;"><symbol id="icon-Без-названия-01" viewBox="0 0 22 22"><title>Без названия 01</title><g class="nc-icon-wrapper" stroke="none" fill="currentColor"><path d="M18.5 5.8c-1.6-2.5-4.4-4.2-7.5-4.2-4.5 0-8.3 3.5-8.9 8 .2 0 .4-.1.6-.1H3c.6-4 4-7.1 8.1-7.1 2.9 0 5.4 1.6 6.8 3.9.2-.2.4-.4.6-.5z"/><path d="M19.5 12.2h-.4c-.6 4.1-4 7.2-8.1 7.2-2.7 0-5.1-1.4-6.6-3.5 0 .1-.1.1-.2.2l-.3.3c1.6 2.3 4.3 3.8 7.2 3.8 4.5 0 8.3-3.5 8.9-8h-.5z"/><path d="M6.8 13.6v-.8c.4.3.8.5 1.3.5.4 0 .7-.1.9-.3.2-.2.3-.5.3-.9 0-.8-.5-1.2-1.5-1.2h-.5v-.6h.4c.9 0 1.3-.4 1.3-1.1 0-.7-.3-1-1-1-.3-.1-.7.1-1 .4v-.7c.3-.2.8-.4 1.2-.4.5 0 .8.1 1.1.4s.4.7.4 1.1c0 .8-.4 1.3-1.1 1.6.4 0 .7.2.9.5.2.3.3.6.3 1 0 .6-.2 1-.5 1.3s-.8.5-1.3.5-.9-.1-1.2-.3z"/><path d="M11.1 13.8V7.6h1.5c1.9 0 2.9 1 2.9 3 0 .9-.3 1.7-.8 2.3-.5.6-1.2.9-2.1.9h-1.5zm.7-5.5v4.8h.8c.7 0 1.3-.2 1.7-.6.4-.4.6-1 .6-1.8 0-1.6-.7-2.4-2.2-2.4h-.9z"/><path d="M22 12.4h-5.1L19.4 8l2.6 4.4zm-4.2-.5H21l-1.6-2.8-1.6 2.8z"/><path d="M2.6 13.8L0 9.4h5.1l-2.5 4.4zM.9 9.9l1.6 2.8 1.6-2.8H.9z"/></g></symbol><symbol id="icon-Без-названия-(2)" viewBox="0 0 25 25"><title>Без названия (2)</title><g class="nc-icon-wrapper" stroke="none"><path fill="currentColor" d="M21.6 8.1L18.1 10V8.4c0-.6-.5-1.1-1-1.1h-4.8v-.6c0-.3-.2-.6-.6-.6H9.8c-.3 0-.6.3-.6.6v.7h-.9v-.7c0-.3-.3-.6-.6-.6H5.8c-.3 0-.7.3-.7.6v.7H5c-.6 0-1.1.5-1.1 1.1v8.9c0 .6.5 1.1 1.1 1.1h12.2c.6 0 1-.5 1-1.1v-1.7l3.5 2c.3.2.6 0 .6-.3v-9c-.1-.3-.4-.5-.7-.3zM11 16.3c-1.9 0-3.5-1.6-3.5-3.5S9.1 9.3 11 9.3s3.5 1.6 3.5 3.5-1.6 3.5-3.5 3.5z"/><path fill="currentColor" d="M13 12.5l-2.7-1.9c-.3-.2-.5-.1-.5.3v3.9c0 .3.2.5.5.3l2.7-1.9c.3-.2.3-.5 0-.7z"/></g></symbol><symbol id="icon-Без-названия-(4)" viewBox="0 0 25 25"><title>Без названия (4)</title><g class="nc-icon-wrapper"><path d="M15.9 17.4l3.4 3.4 1.4-1.5-3.4-3.4 1.4-1.3h-4.1v4.1l1.3-1.3zM7.6 9.1l-1.3 1.4 4.1-.1V6.3L9.1 7.7 5.7 4.3 4.3 5.7l3.3 3.4zM4.3 19.3l1.4 1.5 3.4-3.4 1.3 1.3v-4.1H6.3l1.4 1.3-3.4 3.4zm14.4-8.9L17.4 9l3.3-3.3-1.4-1.5-3.4 3.4-1.3-1.4v4.2h4.1z" fill="#121314"/></g></symbol><symbol id="icon-Без-названия-(3)" viewBox="0 0 25 25"><title>Без названия (3)</title><g class="nc-icon-wrapper" stroke="none"><path d="M4.3 6.8v2.6s.5-.4 1-1l1-1 2 2 2 2 .6-.6.6-.6-2-2-2-2 1-1 1-1H4.3v2.6zm12.3-1.5l1 1-2 2-2 2 .6.6.6.6 2-2 2-2 1 1 1 1V4.3h-5.2l1 1zM8.3 15.6l-2 2-1-1-1-1v5.2h5.2l-1-1-1-1 2-2 2-2-.6-.6-.6-.6c0-.1-2 2-2 2zm5.8-1.5l-.6.6 2 2 2 2-1 1-1 1h5.2v-5.2l-1 1-1 1-2-2-2-2-.6.6z" fill="currentColor"/></g></symbol><symbol id="icon-Без-названия-(8)" viewBox="0 0 25 25"><title>Без названия (8)</title><g class="nc-icon-wrapper" stroke="none"><path fill="currentColor" d="M17.8 4.8l-2-1.9-9.6 9.6 9.6 9.6 2-1.9-7.7-7.7z"/></g></symbol><symbol id="icon-Без-названия-(7)" viewBox="0 0 25 25"><title>Без названия (7)</title><g class="nc-icon-wrapper" stroke="none"><path d="M4.3 6.8v2.6s.5-.4 1-1l1-1 2 2 2 2 .6-.6.6-.6-2-2-2-2 1-1 1-1H4.3v2.6zm12.3-1.5l1 1-2 2-2 2 .6.6.6.6 2-2 2-2 1 1 1 1V4.3h-5.2l1 1zM8.3 15.6l-2 2-1-1-1-1v5.2h5.2l-1-1-1-1 2-2 2-2-.6-.6-.6-.6c0-.1-2 2-2 2zm5.8-1.5l-.6.6 2 2 2 2-1 1-1 1h5.2v-5.2l-1 1-1 1-2-2-2-2-.6.6z" fill="currentColor"/></g></symbol><symbol id="icon-Без-названия-(6)" viewBox="0 0 25 25"><title>Без названия (6)</title><g class="nc-icon-wrapper" stroke="none"><path d="M5.2 19.7C4 19.4 3.1 18.2 3.3 17V8.6c.3-.8 1-1.4 1.8-1.4-.3-1.1 1-1 1.6-1 .7 0 .7.7 1 .8h1.9c.8-.8 1.4-1.9 2.5-2.5 1.8 0 3.6 0 5.3.1 1 .4 1.4 1.4 2.1 2.2.5.5 1.6.1 2.1 1.1.4.7.1 1.5.3 2.2v7.7c-.3 1.2-1.5 2.1-2.6 1.9H5.2zm9.8-1.5c2.7-.3 4.8-3.3 4.1-5.9-.5-2.6-3.8-4.2-6.3-3.3-2.6 1-3.8 4.2-2.5 6.7.9 1.7 3 2.8 4.7 2.5zm-.9-1.2c-2.2-.1-3.8-2.7-3-4.8.8-2.1 3.6-3 5.3-1.8 2.1 1.1 2.3 4.4.4 5.8-.7.7-1.6.9-2.7.8zm2.2-4c1.4-.7-.4-2.7-1.2-1.4-.6.9.4 2 1.2 1.4zM7 10.6c1.5-.7-.3-2.9-1.2-1.5-.6.9.3 2 1.2 1.5z" fill="currentColor"/></g></symbol><symbol id="icon-Без-названия-(5)" viewBox="0 0 25 25"><title>Без названия (5)</title><g class="nc-icon-wrapper"><path d="M10.3 10.4c-.1-.8-.7-1.5-1.5-1.5-.1 0-.3 0-.4.1-.3-.8-1-1.3-1.8-1.3-1 0-1.8.8-1.9 1.9-.1-.1-.3-.2-.5-.2-.6 0-1.1.6-1.1 1.3 0 .7.5 1.3 1.1 1.3h6.1c.4 0 .7-.3.7-.8s-.3-.8-.7-.8z" fill="#c9c8c8"/><ellipse cx="16.9" cy="7.2" rx="2.9" ry="2.8" fill="#fff"/><path d="M25 25v-6.9c-.6-.4-1.6-1.2-2.7-1.1-2 .2-3 2.3-5.8 1.5-1.3-.4-2.4-1.2-3.8-1.3-.7 0-1.7.3-2.4.5-1.9.6-3.2 1.4-5.3 1-2.1-.3-3-.9-5.1 0V25H25z" fill="#000"/></g></symbol><symbol id="icon-Без-названия-(1)" viewBox="0 0 25 25"><title>Без названия (1)</title><g class="nc-icon-wrapper" stroke="none"><path d="M19.4 10V6c0-.2-.2-.4-.4-.4h-4c-.2 0-.3.1-.4.3l-.3.9H4.4c-.1 0-.2 0-.3.1-.1.1-.1.2-.1.3v11.7c0 .2.2.4.4.4h14.2l2.7-9.4h-1.9v.1zm-.8 0H7l-2.2 7.6v-10h9.8c.2 0 .3-.1.4-.3l.3-.9h3.3V10z" fill="currentColor"/></g></symbol><symbol id="icon-Без-названия" viewBox="0 0 25 25"><title>Без названия</title><g class="nc-icon-wrapper" stroke="none"><path d="M0 2h25v4H0V2zm0 8h25v4H0v-4zm0 8h25v4H0v-4z" fill="currentColor" fill-rule="evenodd"/></g></symbol></svg>